HIERARCHY
ROOT HipCenter
{
    OFFSET 0.0 0.0 -0.0
    CHANNELS 6 Xposition Yposition Zposition Zrotation Xrotation Yrotation
    JOINT Spine
    {
        OFFSET 0.0 30.748775482177734 0.0
        CHANNELS 3 Zrotation Xrotation Yrotation
        JOINT ShoulderCenter
        {
            OFFSET 0.0 22.544414520263672 0.0
            CHANNELS 3 Zrotation Xrotation Yrotation
            JOINT LeftShoulder
            {
                OFFSET 15.994600296020508 0.0 0.0
                CHANNELS 3 Zrotation Xrotation Yrotation
                JOINT LeftElbow
                {
                    OFFSET 23.11345863342285 0.0 0.0
                    CHANNELS 3 Zrotation Xrotation Yrotation
                    JOINT LeftWrist
                    {
                        OFFSET 19.85919952392578 0.0 0.0
                        CHANNELS 3 Zrotation Xrotation Yrotation
                        JOINT LeftHand
                        {
                            OFFSET 5.169515609741211 0.0 0.0
                            CHANNELS 3 Zrotation Xrotation Yrotation
                            End Site
                            {
                                OFFSET 2.0678064823150635 0.0 0.0
                            }
                        }
                    }
                }
            }
            JOINT RightShoulder
            {
                OFFSET -15.994600296020508 0.0 0.0
                CHANNELS 3 Zrotation Xrotation Yrotation
                JOINT RightElbow
                {
                    OFFSET -23.11345863342285 0.0 0.0
                    CHANNELS 3 Zrotation Xrotation Yrotation
                    JOINT RightWrist
                    {
                        OFFSET -19.85919952392578 0.0 0.0
                        CHANNELS 3 Zrotation Xrotation Yrotation
                        JOINT RightHand
                        {
                            OFFSET -5.169515609741211 0.0 0.0
                            CHANNELS 3 Zrotation Xrotation Yrotation
                            End Site
                            {
                                OFFSET -2.0678064823150635 0.0 0.0
                            }
                        }
                    }
                }
            }
            End Site
            {
                OFFSET 0.0 9.017765998840332 0.0
            }
        }
    }
    JOINT LeftHip
    {
        OFFSET 7.825013160705566 0.0 0.0
        CHANNELS 3 Zrotation Xrotation Yrotation
        JOINT LeftKnee
        {
            OFFSET 0.0 -30.836036682128906 0.0
            CHANNELS 3 Zrotation Xrotation Yrotation
            JOINT LeftAnkle
            {
                OFFSET 0.0 -30.337039947509766 0.0
                CHANNELS 3 Zrotation Xrotation Yrotation
                JOINT LeftFoot
                {
                    OFFSET 0.0 -11.05637264251709 0.0
                    CHANNELS 3 Zrotation Xrotation Yrotation
                    End Site
                    {
                        OFFSET 0.0 0.0 4.422549247741699
                    }
                }
            }
        }
    }
    JOINT RightHip
    {
        OFFSET -7.825013160705566 0.0 0.0
        CHANNELS 3 Zrotation Xrotation Yrotation
        JOINT RightKnee
        {
            OFFSET 0.0 -30.836036682128906 0.0
            CHANNELS 3 Zrotation Xrotation Yrotation
            JOINT RightAnkle
            {
                OFFSET 0.0 -30.337039947509766 0.0
                CHANNELS 3 Zrotation Xrotation Yrotation
                JOINT RightFoot
                {
                    OFFSET 0.0 -11.05637264251709 0.0
                    CHANNELS 3 Zrotation Xrotation Yrotation
                    End Site
                    {
                        OFFSET 0.0 0.0 4.422549247741699
                    }
                }
            }
        }
    }
}
MOTION
Frames: 6
Frame Time: 0.03333333333333333
-4.206300258636475 -12.364999771118164 -263.66351318359375 -0.8216390819032698 0.7143942437383339 -179.41895706145237 0.08940389644679939 -1.8738360356861254 0.0006456497251173032 4.223668576533659e-08 3.300833323262445e-07 1.2401912361978462 -72.61129977184491 -45.4540340965653 9.546300861254004 -2.990839366196192e-06 -6.5741334405450204e-06 16.934703618661146 -1.1904145668414398e-05 -79.61320084707967 32.560486378684516 0.0 0.0 3.1805546814635168e-15 73.25128938415236 -21.038063701105774 -5.442024621984932 -6.78951947743545e-06 1.6931614918555502e-06 -54.869813395108565 1.1635037173776276e-05 -72.97976685471919 -38.09194857641124 3.180554681463516e-15 2.3854160110976368e-15 -3.180554681463516e-15 4.322082962205948 -10.818842821276862 27.3925211254013 0.17069165163494973 8.200633599411614 0.3647296658265916 33.44911577642286 44.294088948633075 -22.698527116627236 -1.5902773407317582e-15 0.0 0.0 -3.7709880342362627 -11.456492858721964 -27.153752548716948 -1.648774036313451 8.211273039709123 -0.24176239698352037 -39.827204919663714 36.64699249060661 25.121734011596864 7.951386703658792e-16 -1.1034765745125397e-32 -1.5902773407317584e-15
-4.201700210571289 -12.342100143432617 -263.7096862792969 -0.8675471410267732 0.7334033403705538 -179.04685250313392 0.08570535565478016 -1.8548989220296908 0.0022877297773362705 -1.2079980281323294e-07 2.1972693611767606e-07 1.458083646921128 -72.82591250235542 -44.85975676861469 9.166267331286967 -1.9125591842890486e-06 1.3471740357910927e-06 16.897278499205015 179.99999827311893 -80.0988674698409 -130.3888320024687 0.0 0.0 0.0 71.45989305736445 -23.34827350970489 -5.789126103010367 2.9938880353234223e-06 1.490562951725942e-06 -57.71393599253856 -3.922152013228489e-06 -35.4411535959819 -60.567100716771144 3.1805546814635164e-15 4.4139062980501586e-32 1.5902773407317582e-15 4.148633753587603 -10.841069860872404 27.158609013395193 0.3420510108173412 8.08730347839797 0.3471620740081813 33.13388001167555 43.45369063240818 -22.207261413348323 1.5902773407317584e-15 3.310429723537619e-32 2.3854160110976376e-15 -3.878334834502977 -11.352556645044515 -27.099270472194053 -1.3650221766926425 8.072591674210367 -0.26517412209244945 -40.39544785046219 36.9781087747648 25.59053338951407 -3.975693351829396e-15 5.517382872562698e-32 -1.5902773407317584e-15
-4.2042999267578125 -12.334799766540527 -263.6944885253906 -0.9162775414677814 0.733342422365077 -178.9147226548843 0.12713589083814958 -1.857845695282307 0.003663641853611784 -1.6304350044670014e-07 -7.137520975896899e-08 1.500566356139848 -72.92795726515833 -44.72530295284878 8.89933367512578 8.517731109488331e-07 -5.8225008816893254e-06 17.087007841126194 -0.0003893676617023027 -89.47251026356008 46.457362760968415 6.3611093629270335e-15 1.7655625192200634e-31 3.1805546814635168e-15 63.62786430057976 -27.96624803887881 -10.04754211146718 3.844765050995339e-06 2.080677066854031e-06 -78.80574247576381 -179.99999659560496 -50.77778231160213 174.51700162843466 8.827812596100317e-32 3.1805546814635168e-15 -3.1805546814635168e-15 4.08919720946115 -10.87030110034881 27.12630321308385 0.313553672002589 8.093810417924537 0.36057431233981363 33.17143435485793 43.56272579502391 -22.203902352711157 1.5902773407317584e-15 -6.620859447075238e-32 -4.770832022195275e-15 -3.886999229397254 -11.321570509710599 -27.140251514099003 -1.4702799798790336 7.947438793657672 -0.2458060151242789 -40.293985548863546 37.24091440019285 25.732010459293683 0.0 0.0 -7.951386703658792e-16
-4.206399917602539 -12.300399780273438 -263.8674011230469 -1.0404120105046244 0.6742041845448412 -178.08496723544457 0.10504036998595531 -1.816362931237943 0.003688542225419374 1.663900463377174e-08 1.1437791948442176e-07 1.6400353440077289 -73.10934032562916 -44.19152543256519 8.161321625991162 4.4179974934615435e-07 -3.57347854134424e-07 17.209510465502373 179.999994544142 -75.02126917652045 -126.71032083781716 6.3611093629270335e-15 6.3611093629270335e-15 -3.531125038440127e-31 60.91170817181537 -24.957500270448513 -15.056233152113881 5.485143430084713e-06 -2.1862963495012647e-06 -92.30205432019478 -179.99997761605798 75.3496829801957 179.33546937250452 7.951386703658792e-16 0.0 0.0 3.817764884330063 -10.84637313110218 26.76162576090119 0.2700314072238436 7.86771701491092 0.3671998697100806 33.50618535982998 42.94652629768901 -22.14463126407959 1.5902773407317584e-15 1.1034765745125397e-32 7.951386703658792e-16 -4.235146343184106 -11.115285926619874 -27.220192720116174 -1.1642744886630012 8.010442998436272 -0.23243864600240138 -39.619508300141334 37.26180381097224 25.290544673098626 -7.951386703658792e-16 -6.3611093629270335e-15 -7.951386703658792e-16
-4.206300258636475 -12.301899909973145 -263.8572998046875 -1.0874344686474382 0.6556963516320008 -178.10455645533236 0.16452632889005628 -1.7863398523094012 0.0061037880639538186 -9.45096905782784e-09 -1.1648213069640757e-07 2.0142508345126413 -73.1908415369498 -44.379965859509376 7.155062070842838 3.9676158703053226e-07 1.1971492537351121e-06 18.08219153826036 -179.99999450394571 -85.75752190923957 -134.39416763457086 0.0 6.212020862233431e-18 0.0 54.00084073428803 -19.090311835291118 -27.279616106418107 6.2874126567214e-06 4.1404673869609585e-06 -101.58322059413014 179.99997334414434 -72.19235742154315 178.87726749287225 -2.3854160110976376e-15 -4.965644585306429e-32 2.3854160110976376e-15 3.818965857268021 -10.85874682984607 26.76703710933818 0.1984656590772079 7.895086106691909 0.37530833338535236 33.41522701657943 43.08478569468535 -22.08525493864233 3.1805546814635168e-15 2.2069531490250793e-32 7.951386703658792e-16 -4.282926911579563 -11.154575887907173 -27.21669610864354 -1.1407218475261873 7.994955177863488 -0.23280434019728016 -40.2143536528927 37.68491655574796 25.97827665095554 -1.5902773407317584e-15 1.1034765745125397e-32 -7.951386703658792e-16
-4.272299766540527 -12.3503999710083 -264.23541259765625 -1.413755192774661 0.42543935242445685 -177.57666745578206 0.19405703097980037 -1.6821141442102823 -0.0007654404835401653 2.4333976993854718e-09 -2.3566957493236782e-07 1.4253434368833484 -74.51449497925371 -43.49684148951369 5.162040990317766 -6.041766415256728e-07 4.091495692438056e-06 18.00976497174144 -179.99999971296234 -74.39669018844289 -126.88180054589526 2.2069531490250793e-32 7.951386703658792e-16 -3.1805546814635168e-15 56.338609673095704 -11.087417816305058 -23.091044910995052 -5.129993306336201e-06 -1.487468665260601e-06 -116.58554618057627 5.612296290762991e-07 -9.168812799677765 -38.99417460623155 0.0 0.0 3.9756933518293955e-16 3.3391015784625817 -11.101700733082932 26.433807887020663 -0.045026955458226804 7.160089235088973 0.44186296621565513 34.88827057233348 44.54671978337913 -23.160123136469924 1.5902773407317584e-15 0.0 0.0 -5.0082860751779785 -11.264260379417614 -27.39726642378542 -0.4393880360640957 8.01124444666274 -0.20079835751498343 -41.39108088430235 38.206254285759165 27.398977424286272 -2.3854160110976376e-15 0.0 0.0
